{
	"asset":{
		"generator":"Khronos glTF Blender I/O v4.0.44",
		"version":"2.0"
	},
	"scene":0,
	"scenes":[
		{
			"name":"Scene",
			"nodes":[
				0,
				1
			]
		}
	],
	"nodes":[
		{
			"mesh":0,
			"name":"Sphere.006",
			"scale":[
				9.02558708190918,
				9.02558708190918,
				9.02558708190918
			]
		},
		{
			"mesh":1,
			"name":"Circle",
			"scale":[
				9.026000022888184,
				9.026000022888184,
				9.026000022888184
			]
		}
	],
	"materials":[
		{
			"doubleSided":true,
			"name":"Space Universe Galaxy",
			"pbrMetallicRoughness":{}
		},
		{
			"doubleSided":true,
			"name":"Material.004",
			"pbrMetallicRoughness":{
				"baseColorFactor":[
					0.20400133728981018,
					0.8003387451171875,
					0.10788709670305252,
					1
				],
				"metallicFactor":0,
				"roughnessFactor":0.5
			}
		}
	],
	"meshes":[
		{
			"name":"Sphere.007",
			"primitives":[
				{
					"attributes":{
						"POSITION":0,
						"NORMAL":1,
						"TEXCOORD_0":2,
						"TEXCOORD_1":3
					},
					"indices":4,
					"material":0
				}
			]
		},
		{
			"name":"Circle.003",
			"primitives":[
				{
					"attributes":{
						"POSITION":5,
						"NORMAL":6,
						"TEXCOORD_0":7
					},
					"indices":8,
					"material":1
				}
			]
		}
	],
	"accessors":[
		{
			"bufferView":0,
			"componentType":5126,
			"count":8128,
			"max":[
				0.9999998807907104,
				1,
				0.9999997615814209
			],
			"min":[
				-0.9999997019767761,
				0,
				-1
			],
			"type":"VEC3"
		},
		{
			"bufferView":1,
			"componentType":5126,
			"count":8128,
			"type":"VEC3"
		},
		{
			"bufferView":2,
			"componentType":5126,
			"count":8128,
			"type":"VEC2"
		},
		{
			"bufferView":3,
			"componentType":5126,
			"count":8128,
			"type":"VEC2"
		},
		{
			"bufferView":4,
			"componentType":5123,
			"count":12096,
			"type":"SCALAR"
		},
		{
			"bufferView":5,
			"componentType":5126,
			"count":64,
			"max":[
				1,
				0,
				1
			],
			"min":[
				-1,
				0,
				-1
			],
			"type":"VEC3"
		},
		{
			"bufferView":6,
			"componentType":5126,
			"count":64,
			"type":"VEC3"
		},
		{
			"bufferView":7,
			"componentType":5126,
			"count":64,
			"type":"VEC2"
		},
		{
			"bufferView":8,
			"componentType":5123,
			"count":186,
			"type":"SCALAR"
		}
	],
	"bufferViews":[
		{
			"buffer":0,
			"byteLength":97536,
			"byteOffset":0,
			"target":34962
		},
		{
			"buffer":0,
			"byteLength":97536,
			"byteOffset":97536,
			"target":34962
		},
		{
			"buffer":0,
			"byteLength":65024,
			"byteOffset":195072,
			"target":34962
		},
		{
			"buffer":0,
			"byteLength":65024,
			"byteOffset":260096,
			"target":34962
		},
		{
			"buffer":0,
			"byteLength":24192,
			"byteOffset":325120,
			"target":34963
		},
		{
			"buffer":0,
			"byteLength":768,
			"byteOffset":349312,
			"target":34962
		},
		{
			"buffer":0,
			"byteLength":768,
			"byteOffset":350080,
			"target":34962
		},
		{
			"buffer":0,
			"byteLength":512,
			"byteOffset":350848,
			"target":34962
		},
		{
			"buffer":0,
			"byteLength":372,
			"byteOffset":351360,
			"target":34963
		}
	],
	"buffers":[
		{
			"byteLength":351732,
			"uri":"universe.bin"
		}
	]
}
